<svg width="74" height="67" viewBox="0 0 74 67" fill="none" xmlns="http://www.w3.org/2000/svg">
<path d="M52.4694 0H59.7257C60.1961 0 60.6473 0.186876 60.9799 0.519519C61.3126 0.852161 61.4994 1.30332 61.4994 1.77375V51.1967C61.4994 51.6671 61.3126 52.1182 60.9799 52.4508C60.6473 52.7834 60.1962 52.9703 59.7258 52.9703H52.4693C51.9989 52.9703 51.5478 52.7834 51.2152 52.4508C50.8825 52.1182 50.6957 51.6671 50.6957 51.1967V1.77387C50.6957 1.54093 50.7415 1.31027 50.8307 1.09505C50.9198 0.879834 51.0504 0.684283 51.2152 0.519562C51.3799 0.354842 51.5754 0.224177 51.7906 0.13503C52.0058 0.0458832 52.2365 -5.64426e-10 52.4694 0Z" fill="#54FFBD"/>
<path d="M64.8311 16.8755V36.0952C67.157 35.7812 69.2902 34.6342 70.8348 32.867C72.3795 31.0999 73.2307 28.8324 73.2307 26.4853C73.2307 24.1383 72.3795 21.8708 70.8348 20.1036C69.2902 18.3365 67.157 17.1895 64.8311 16.8755Z" fill="#54FFBD"/>
<path d="M22.6462 39.8501V15.7227H12.4799C9.3694 15.6823 6.35841 16.8181 4.04955 18.9028C1.7407 20.9875 0.304337 23.8672 0.0279536 26.9657C-0.0844671 28.6142 0.142983 30.2683 0.696199 31.8253C1.24942 33.3824 2.1166 34.8092 3.24399 36.0172C4.37137 37.2253 5.73491 38.1888 7.25005 38.8482C8.7652 39.5075 10.3996 39.8485 12.052 39.8501H22.6462Z" fill="#54FFBD"/>
<path d="M25.9802 40.7266L30.0426 41.9614L30.0179 49.654H22.6463V43.1838H12.052C11.6939 43.1838 11.3358 43.1715 10.9901 43.1468L8.71993 42.9761C8.70943 42.9753 8.6989 42.977 8.68914 42.9809C8.67939 42.9849 8.67069 42.9911 8.66372 42.9989C8.65674 43.0068 8.65169 43.0162 8.64895 43.0264C8.64622 43.0365 8.64587 43.0472 8.64794 43.0575L12.8543 64.2119C12.9544 64.714 13.2234 65.1666 13.6165 65.4946C14.0097 65.8226 14.5032 66.0061 15.0152 66.0146L20.3741 66.1011C20.6707 66.106 20.9653 66.0518 21.2407 65.9417C21.5162 65.8316 21.7669 65.6677 21.9784 65.4597C22.1899 65.2517 22.3578 65.0036 22.4724 64.73C22.5871 64.4564 22.6461 64.1628 22.646 63.8661V53.9756H30.4745C31.4977 53.9768 32.4796 53.5717 33.2043 52.8493C33.929 52.1269 34.3373 51.1464 34.3393 50.1231V43.2701L47.3674 47.2225V7.38623L25.9802 14.5865V40.7266Z" fill="#54FFBD"/>
</svg>
