<svg width="73" height="73" viewBox="0 0 73 73" fill="none" xmlns="http://www.w3.org/2000/svg">
<path d="M9.04767 16.8032V72.3815H72.381V16.8032H9.04767ZM71.0885 71.089H10.3402V29.7284H71.0885V71.089ZM71.0885 28.4359H10.3402V18.0957H71.0885V28.4359Z" fill="#54FFBD"/>
<path d="M41.3604 3.87744V9.04751H59.4556V3.87744H41.3604ZM58.1631 7.755H42.6529V5.16996H58.1631V7.755Z" fill="#54FFBD"/>
<path d="M19.3879 3.87744V9.04751H24.558V3.87744H19.3879ZM23.2654 7.755H20.6804V5.16996H23.2654V7.755Z" fill="#54FFBD"/>
<path d="M11.6328 3.87744V9.04751H16.8029V3.87744H11.6328ZM15.5104 7.755H12.9253V5.16996H15.5104V7.755Z" fill="#54FFBD"/>
<path d="M3.87781 3.87744V9.04751H9.04788V3.87744H3.87781ZM7.75536 7.755H5.17033V5.16996H7.75536V7.755Z" fill="#54FFBD"/>
<path d="M50.4079 20.6802V25.8502H68.5031V20.6802H50.4079ZM67.2106 24.5577H51.7004V21.9727H67.2106V24.5577Z" fill="#54FFBD"/>
<path d="M28.4354 20.6802V25.8502H33.6055V20.6802H28.4354ZM32.313 24.5577H29.7279V21.9727H32.313V24.5577Z" fill="#54FFBD"/>
<path d="M20.6804 20.6802V25.8502H25.8505V20.6802H20.6804ZM24.558 24.5577H21.9729V21.9727H24.558V24.5577Z" fill="#54FFBD"/>
<path d="M12.9254 20.6802V25.8502H18.0954V20.6802H12.9254ZM16.8029 24.5577H14.2179V21.9727H16.8029V24.5577Z" fill="#54FFBD"/>
<path d="M64.4525 37.5624L65.3987 35.9597L64.6257 32.9585L61.6245 33.7314L60.6784 35.3341L62.7942 34.7887L54.7057 48.4868C54.2494 48.0784 53.6523 47.8225 52.9931 47.8225C52.4593 47.8225 51.9629 47.9853 51.5506 48.2632L47.2052 43.0169C47.5852 42.5671 47.823 41.9932 47.823 41.3599C47.823 39.9342 46.6636 38.7748 45.238 38.7748C43.8123 38.7748 42.6529 39.9342 42.6529 41.3599C42.6529 41.9997 42.8946 42.5774 43.2811 43.0298L36.7229 54.3419C36.5509 54.3057 36.3726 54.285 36.1903 54.285C35.6565 54.285 35.1602 54.4479 34.7466 54.7258L29.6269 51.0809C29.6864 50.865 29.7277 50.6427 29.7277 50.4075C29.7277 48.9818 28.5684 47.8225 27.1427 47.8225C25.7171 47.8225 24.5577 48.9818 24.5577 50.4075C24.5577 50.7603 24.6301 51.0977 24.758 51.404L17.4566 62.1332C17.2472 62.0789 17.03 62.0401 16.8026 62.0401C15.3769 62.0401 14.2175 63.1995 14.2175 64.6252C14.2175 66.0508 15.3769 67.2102 16.8026 67.2102C18.2282 67.2102 19.3876 66.0508 19.3876 64.6252C19.3876 63.8949 19.08 63.237 18.5901 62.7665L25.5982 52.4691C26.0311 52.7935 26.5611 52.9925 27.1427 52.9925C27.8652 52.9925 28.5179 52.6927 28.9871 52.2131L33.8948 55.7068C33.7152 56.0571 33.6053 56.4487 33.6053 56.8701C33.6053 58.2957 34.7647 59.4551 36.1903 59.4551C37.616 59.4551 38.7754 58.2957 38.7754 56.8701C38.7754 56.092 38.4225 55.4005 37.8771 54.9274L44.3422 43.7769C44.6227 43.8803 44.9213 43.9449 45.238 43.9449C45.5611 43.9449 45.8674 43.879 46.1531 43.7691L50.6937 49.252C50.5166 49.601 50.408 49.99 50.408 50.4075C50.408 51.8331 51.5674 52.9925 52.9931 52.9925C54.4187 52.9925 55.5781 51.8331 55.5781 50.4075C55.5781 50.1697 55.5354 49.9448 55.4747 49.725L63.9071 35.4453L64.4525 37.5624ZM16.8026 65.9177C16.0904 65.9177 15.51 65.3374 15.51 64.6252C15.51 63.913 16.0904 63.3327 16.8026 63.3327C17.5147 63.3327 18.0951 63.913 18.0951 64.6252C18.0951 65.3374 17.5147 65.9177 16.8026 65.9177ZM27.1427 51.7C26.4305 51.7 25.8502 51.1197 25.8502 50.4075C25.8502 49.6953 26.4305 49.115 27.1427 49.115C27.8549 49.115 28.4352 49.6953 28.4352 50.4075C28.4352 51.1197 27.8549 51.7 27.1427 51.7ZM36.1903 58.1626C35.4782 58.1626 34.8978 57.5823 34.8978 56.8701C34.8978 56.1579 35.4782 55.5776 36.1903 55.5776C36.9025 55.5776 37.4829 56.1579 37.4829 56.8701C37.4829 57.5823 36.9025 58.1626 36.1903 58.1626ZM43.9454 41.3599C43.9454 40.6477 44.5258 40.0673 45.238 40.0673C45.9501 40.0673 46.5305 40.6477 46.5305 41.3599C46.5305 42.072 45.9501 42.6524 45.238 42.6524C44.5258 42.6524 43.9454 42.072 43.9454 41.3599ZM52.9931 51.7C52.2809 51.7 51.7006 51.1197 51.7006 50.4075C51.7006 49.6953 52.2809 49.115 52.9931 49.115C53.7052 49.115 54.2856 49.6953 54.2856 50.4075C54.2856 51.1197 53.7052 51.7 52.9931 51.7Z" fill="#54FFBD"/>
<path d="M7.75511 54.2858H1.29252V12.9252H62.0409V15.5102H63.3334V0H0V55.5783H7.75511V54.2858ZM1.29252 1.29252H62.0409V11.6327H1.29252V1.29252Z" fill="#54FFBD"/>
</svg>
