<svg width="78" height="52" viewBox="0 0 78 52" fill="none" xmlns="http://www.w3.org/2000/svg">
<path d="M70.9251 51.5819H6.44773C2.89181 51.5819 0 48.69 0 45.1341V6.44773C0 2.89181 2.89181 0 6.44773 0H70.9251C74.481 0 77.3728 2.89181 77.3728 6.44773V45.1341C77.3728 48.69 74.481 51.5819 70.9251 51.5819ZM6.44773 3.22387C4.66977 3.22387 3.22387 4.66977 3.22387 6.44773V45.1341C3.22387 46.9121 4.66977 48.358 6.44773 48.358H70.9251C72.703 48.358 74.1489 46.9121 74.1489 45.1341V6.44773C74.1489 4.66977 72.703 3.22387 70.9251 3.22387H6.44773Z" fill="#54FFBD"/>
<path d="M38.6862 34.1585L10.408 15.8614C9.6601 15.3762 9.44571 14.3801 9.92929 13.6321C10.4129 12.8842 11.4107 12.6714 12.1586 13.1534L38.6862 30.3188L65.2138 13.1534C65.9617 12.6714 66.9595 12.8842 67.4431 13.6321C67.9266 14.3801 67.7123 15.3762 66.9643 15.8614L38.6862 34.1585Z" fill="#54FFBD"/>
<path d="M9.67324 41.9105C9.15259 41.9105 8.64 41.6591 8.3305 41.1932C7.83564 40.4517 8.03552 39.4523 8.77701 38.9575L23.2844 29.2859C24.0259 28.791 25.0269 28.9909 25.5202 29.7324C26.015 30.4739 25.8151 31.4733 25.0737 31.9681L10.5663 41.6397C10.2906 41.8219 9.97951 41.9105 9.67324 41.9105Z" fill="#54FFBD"/>
<path d="M67.6996 41.9105C67.3933 41.9105 67.0822 41.8219 66.8066 41.6397L52.2992 31.9681C51.5577 31.4733 51.3578 30.4739 51.8527 29.7324C52.3459 28.9909 53.3453 28.791 54.0884 29.2859L68.5958 38.9575C69.3373 39.4523 69.5372 40.4517 69.0423 41.1932C68.7328 41.6591 68.2202 41.9105 67.6996 41.9105Z" fill="#54FFBD"/>
</svg>
