<svg width="63" height="65" viewBox="0 0 63 65" fill="none" xmlns="http://www.w3.org/2000/svg">
<path d="M11.2168 55.8126C17.7828 53.1452 30.5727 46.8528 44.3202 32.1479C46.3036 30.0276 48.6291 27.3602 51.2281 24.0772C52.1856 24.8979 53.2799 25.7187 54.3743 26.5394C55.1266 27.0866 55.8106 27.5654 56.5629 28.1125C57.794 28.9333 59.3671 28.8649 60.4614 27.8389C61.077 27.2918 61.419 26.471 61.4874 25.6503C61.6242 22.2989 61.6926 18.8792 61.6926 15.3226V14.8438C61.6926 11.0137 61.6242 7.25196 61.4874 3.62701C61.419 1.57515 59.6407 -0.0663329 57.5888 0.00206238C57.3837 0.00206238 57.1101 0.0704576 56.9049 0.0704576C49.1078 1.84874 41.4476 3.69541 33.8557 5.74727C33.1717 5.95245 32.6246 6.29443 32.2142 6.84159C31.8722 7.38875 31.667 8.00431 31.667 8.61987C31.667 9.6458 32.2142 10.6033 33.0349 11.1505C33.6505 11.5609 34.266 11.9028 34.95 12.3132C36.1811 13.0656 37.3438 13.6811 38.5066 14.2967C36.5915 17.99 34.3344 21.5466 31.8722 24.8979C26.2638 32.4898 19.8346 38.235 11.6272 45.6217C8.07065 48.8363 5.26644 51.2301 3.28297 52.94C2.46223 53.624 1.70988 54.3763 1.02593 55.1971C0.752348 55.4706 0.547162 55.7442 0.341976 56.0862C0.136791 56.4282 0 56.7702 0 57.1121C0 57.5909 0.205186 58.0013 0.615558 58.2748C0.820744 58.4116 1.02593 58.5484 1.29951 58.5484C1.5047 58.6168 1.70988 58.6168 1.98346 58.6168C2.73581 58.6168 3.55656 58.48 4.3089 58.2748C5.67681 57.9329 6.97632 57.4541 8.27583 56.9753C9.50695 56.4966 10.6013 56.0178 11.2168 55.8126ZM3.76174 56.3598C3.28297 56.4966 2.80421 56.565 2.32544 56.6334C2.66742 56.223 3.07779 55.8126 3.48816 55.4022C5.33483 53.6924 8.54941 50.9566 12.9267 47.1264C21.1341 39.7397 27.7001 33.8577 33.4453 26.0607C36.1811 22.3673 38.6433 18.4688 40.6952 14.3651C40.9688 13.8863 40.7636 13.2707 40.2848 13.0656C38.8485 12.3132 37.4122 11.4925 35.9759 10.6717C35.3604 10.2614 34.7448 9.91938 34.1293 9.50901C33.8557 9.30382 33.6505 9.03024 33.6505 8.68826C33.6505 8.48308 33.7189 8.27789 33.8557 8.07271C33.9925 7.86752 34.1976 7.73073 34.4028 7.73073C41.9263 5.61048 49.5182 3.7638 57.1785 1.98553C58.136 1.78034 59.0935 2.3959 59.3671 3.35343C59.3671 3.49022 59.3671 3.62701 59.3671 3.69541C59.5039 7.25196 59.5723 11.0137 59.5723 14.8438V15.3226C59.5723 18.8792 59.5039 22.2989 59.3671 25.5819C59.3671 25.8555 59.2303 26.1975 59.0251 26.3342C58.82 26.5394 58.5464 26.6078 58.2044 26.6078C57.9992 26.6078 57.7256 26.5394 57.5205 26.4026C56.8365 25.9239 56.1525 25.4451 55.4002 24.8979C54.0323 23.872 52.7328 22.8461 51.5701 21.8886C51.1597 21.5466 50.5441 21.615 50.2021 22.0253C50.2021 22.0253 50.2021 22.0253 50.2021 22.0937C47.4663 25.6503 44.9357 28.5913 42.8155 30.7799C29.3416 45.2113 16.8252 51.3669 10.3961 53.966C9.57534 54.3079 7.93386 54.9919 6.22397 55.6074C5.40323 55.881 4.51409 56.1546 3.76174 56.3598Z" fill="#54FFBD"/>
<path d="M62.5815 39.8079C62.5815 38.7819 62.5131 37.756 62.2396 36.7985C61.966 35.9093 61.4188 35.157 60.6665 34.5414C60.5297 34.473 60.3929 34.3362 60.2561 34.2678C60.0509 34.131 59.8457 34.0626 59.4354 33.8575C59.025 33.6523 58.4094 33.3787 57.4519 32.9683C56.6311 32.558 55.8788 32.216 55.1949 31.874C53.3482 30.9165 51.0911 31.4636 49.7916 33.1051C44.4568 39.8763 38.1644 45.6899 30.9829 50.4775C26.8792 53.0765 22.5019 55.3336 17.9878 57.1803C14.3629 58.685 11.1483 59.6425 8.82283 60.3948C7.66011 60.7368 6.70258 61.0788 6.01862 61.3524C5.67665 61.4892 5.40307 61.626 5.06109 61.8311C4.9243 61.9679 4.78751 62.1047 4.65072 62.2415C4.51393 62.4467 4.37714 62.7203 4.37714 62.9939C4.37714 63.0623 4.37714 63.1307 4.37714 63.1307C4.37714 63.2674 4.44553 63.4726 4.58232 63.6094C4.71911 63.8146 4.9243 64.0198 5.12948 64.0882C5.47146 64.225 5.88183 64.3618 6.22381 64.4302C7.11295 64.5669 7.93369 64.6353 8.82283 64.7037C9.91716 64.7721 11.3535 64.8405 13.0633 64.8405C15.252 64.9089 17.3038 64.9089 19.1505 64.9089C23.9382 64.9089 27.6999 64.7721 31.0513 64.7037C37.1385 64.5669 43.2257 64.2934 49.3129 64.2934H49.518C50.7492 64.2934 51.8435 64.2934 52.801 64.2934C54.3741 64.3618 55.9472 64.2934 57.5203 64.0198C58.0675 63.9514 58.6146 63.7462 59.1618 63.4726C59.6405 63.199 60.1193 62.9255 60.5297 62.5151C61.0768 61.9679 61.4872 61.284 61.7608 60.5316C61.966 59.7793 62.0344 58.9585 62.0344 58.1378C62.0344 56.8383 61.966 55.2652 61.966 53.0081C61.966 51.5718 62.0344 49.862 62.1028 47.8785C62.2396 44.7323 62.5815 42.0649 62.5815 39.8079ZM13.1317 62.9255C10.8063 62.8571 9.02802 62.7887 7.8653 62.7203C8.00209 62.6519 8.13888 62.6519 8.20727 62.5835C9.91716 62.0363 12.5162 61.2156 15.5256 60.1213C15.594 61.0788 15.7308 62.0363 15.7992 62.9255C14.9784 62.9939 14.0893 62.9939 13.1317 62.9255ZM19.1505 62.9939C18.7402 62.9939 18.2614 62.9939 17.851 62.9939C17.7142 61.8311 17.5774 60.6 17.509 59.4373C17.9194 59.3005 18.2614 59.1637 18.6718 58.9585C20.5184 58.2062 22.2967 57.3854 23.8014 56.6331C23.8698 58.7534 23.9382 60.8052 24.1434 62.9255C22.6387 62.9939 20.9972 62.9939 19.1505 62.9939ZM31.0513 62.7887C29.4782 62.7887 27.8367 62.8571 26.1268 62.9255C25.9217 60.6684 25.7849 58.343 25.7849 56.0859C25.7849 55.9491 25.7849 55.8807 25.7165 55.744C28.2471 54.4444 30.2306 53.2817 31.3933 52.5294C31.4617 55.9491 31.5985 59.3689 31.7353 62.7887C31.5301 62.7887 31.2565 62.7887 31.0513 62.7887ZM33.7187 62.7203C33.5135 58.9585 33.3767 55.1968 33.3084 51.3667C33.3084 51.2983 33.3084 51.2983 33.3084 51.2299C35.7022 49.5884 38.0276 47.7417 40.2847 45.8266C40.4899 51.3667 40.6266 56.9751 40.8318 62.5151C38.438 62.5835 36.0442 62.6519 33.7187 62.7203ZM50.3388 62.4467H49.5864H49.3812C47.1926 62.4467 45.004 62.5151 42.8153 62.5151C42.6101 56.4963 42.4049 50.4775 42.1997 44.4587C42.1997 44.3903 42.1997 44.2535 42.1313 44.1852C44.5936 41.9281 46.8506 39.5343 49.0393 37.072C49.518 45.4163 49.9968 53.8289 50.4756 62.1731C50.4072 62.2415 50.3388 62.3099 50.3388 62.4467ZM60.0509 47.8785C59.9141 49.9304 59.9141 51.7086 59.9141 53.1449C59.9141 55.4704 59.9825 57.1119 59.9825 58.2746C59.9825 58.8901 59.9141 59.5057 59.7773 60.1213C59.6405 60.5316 59.4354 60.942 59.0934 61.2156C58.8198 61.4892 58.5462 61.6943 58.2726 61.8311C57.6571 62.1047 57.0415 62.2415 56.3576 62.3099C55.4684 62.3783 54.3057 62.4467 52.801 62.4467H52.3906L50.8176 34.8834C50.9543 34.6782 51.0911 34.5414 51.2279 34.3362C51.7067 33.7207 52.3906 33.3787 53.143 33.3787C53.485 33.3787 53.8953 33.4471 54.2373 33.6523C54.9213 33.9943 55.6736 34.4046 56.5628 34.7466C57.8623 35.3622 58.5462 35.6357 58.9566 35.8409C59.1618 35.9093 59.2302 35.9777 59.2986 35.9777C59.367 35.9777 59.367 36.0461 59.4354 36.0461C59.8457 36.3881 60.1877 36.8669 60.3245 37.3456C60.5297 38.098 60.5981 38.9187 60.5981 39.7395C60.6665 41.7913 60.2561 44.5271 60.0509 47.8785Z" fill="#54FFBD"/>
</svg>
