<svg width="76" height="76" viewBox="0 0 76 76" fill="none" xmlns="http://www.w3.org/2000/svg">
<path d="M61.2214 20.0953C63.947 20.0953 66.1565 17.8858 66.1565 15.1602C66.1565 12.4346 63.947 10.2251 61.2214 10.2251C58.4958 10.2251 56.2863 12.4346 56.2863 15.1602C56.2863 17.8858 58.4958 20.0953 61.2214 20.0953Z" stroke="#54FFBD" stroke-width="3" stroke-miterlimit="10" stroke-linecap="round"/>
<path d="M74.3822 6.1126C74.3822 3.8408 72.5414 2 70.2696 2C70.013 2 45.798 2.00329 45.798 2.00329C43.6101 2.00329 41.516 1.88814 40.3019 3.10218L2.91176 40.4907C1.69608 41.7047 1.69608 43.6755 2.91176 44.8895L31.4927 73.4705C32.7068 74.6845 34.6775 74.6845 35.8916 73.4705L73.2801 36.0803C74.4941 34.8679 74.379 32.8231 74.379 30.5859C74.379 30.5859 74.3822 6.36923 74.3822 6.1126Z" stroke="#54FFBD" stroke-width="3" stroke-miterlimit="10" stroke-linecap="round"/>
<path d="M28.8398 41.0361C28.8489 42.35 29.2685 43.5951 30.0971 44.7653L36.6972 38.109C36.0337 37.0045 35.5111 36.0008 35.1294 35.0963C34.7446 34.1889 34.5235 33.3456 34.4553 32.5573C34.3902 31.7705 34.5144 31.0173 34.831 30.2977C35.1461 29.5767 35.6687 28.8479 36.3988 28.11C37.1456 27.3569 37.9636 26.8008 38.8513 26.4402C39.739 26.0797 40.6404 25.8994 41.5538 25.8994C42.4673 25.8994 43.3671 26.0782 44.2563 26.4402C45.144 26.7992 45.9696 27.3156 46.7345 27.9848L48.3781 26.3272L49.7476 27.7098L48.0782 29.3933C49.2568 30.9165 49.8294 32.4977 49.7975 34.1385C49.7642 35.7792 49.1825 37.5056 48.054 39.3129L45.9377 37.1786C47.2481 35.1849 47.2829 33.2768 46.0377 31.4527L39.9102 37.6324L41.0054 39.539C41.2554 39.9591 41.4993 40.4999 41.7416 41.1614C41.981 41.8214 42.1264 42.5455 42.1764 43.3338C42.2264 44.1191 42.1234 44.9364 41.8659 45.7828C41.6083 46.6292 41.0963 47.4358 40.3329 48.2058C39.5194 49.0262 38.6605 49.6174 37.7546 49.9764C36.8502 50.337 35.9277 50.505 34.9915 50.479C34.0523 50.4531 33.1192 50.2407 32.1876 49.8389C31.259 49.4356 30.3622 48.8673 29.4987 48.1324L27.4567 50.1918L26.0858 48.8108L28.1278 46.7498C26.6342 44.9074 25.8904 42.9947 25.8995 41.0102C25.9071 39.0257 26.7175 37.087 28.3278 35.1941L30.444 37.3284C29.3685 38.4864 28.8322 39.7223 28.8398 41.0361ZM32.9995 47.1914C33.5237 47.4511 34.0554 47.5977 34.6068 47.6298C35.1536 47.6634 35.702 47.5626 36.2504 47.3289C36.7972 47.0951 37.338 46.7101 37.8697 46.1739C38.3484 45.6881 38.6696 45.1977 38.8286 44.7027C38.9862 44.2092 39.0392 43.7036 38.9892 43.1841C38.9392 42.6647 38.7923 42.1254 38.5529 41.5632C38.3136 41.001 38.0333 40.4296 37.7182 39.8445L31.468 46.1479C31.9649 46.5818 32.4769 46.9316 32.9995 47.1914ZM41.8537 28.8158C40.8085 28.7486 39.8102 29.1917 38.865 30.1465C38.4332 30.5819 38.1348 31.0265 37.9682 31.4787C37.8016 31.9294 37.744 32.3907 37.7925 32.8582C37.8425 33.3288 37.9667 33.813 38.1666 34.3157C38.3666 34.8183 38.615 35.3377 38.9135 35.8724L44.7425 29.9953C43.8609 29.2757 42.9005 28.8815 41.8537 28.8158Z" fill="#54FFBD"/>
</svg>
