<svg width="72" height="72" viewBox="0 0 72 72" fill="none" xmlns="http://www.w3.org/2000/svg">
<path d="M67.1949 13.7379L64.7923 11.3354C61.1885 7.73154 56.083 6.83058 51.2779 8.6325L27.5526 17.6421L17.3418 7.1309C15.8402 5.6293 13.7379 4.1277 11.936 3.22674L6.22994 0.523858C4.42802 -0.377102 2.6261 -0.0767813 1.1245 1.1245C-0.0767817 2.6261 -0.377102 4.42802 0.523858 6.22994L3.22674 11.6357C4.1277 13.7379 5.6293 15.5399 7.1309 17.0415L17.3418 27.2523L8.33218 50.9776C6.53026 55.4824 7.73153 60.8882 11.0351 64.492L13.4376 66.8946L30.8562 40.7667L45.8722 53.3802L43.7699 61.7891C43.1693 63.8914 43.7699 66.2939 45.5718 67.7955L49.7763 72L56.3834 56.3834L72 49.7763L67.7955 45.5718C66.2939 44.0702 63.8914 43.4696 61.7891 43.7699L53.3802 45.8722L40.7667 30.8562L67.1949 13.7379Z" fill="#54FFBD"/>
</svg>
