<svg width="67" height="62" viewBox="0 0 67 62" fill="none" xmlns="http://www.w3.org/2000/svg">
<path d="M66.965 19.7147C66.9719 19.6838 66.9832 19.6555 66.9876 19.6242C67.007 19.4878 67.0038 19.3502 66.9767 19.2138C66.9704 19.1815 66.9564 19.152 66.9474 19.1201C66.9287 19.0537 66.9157 18.9862 66.8854 18.9226C66.8654 18.8807 66.8343 18.8476 66.8103 18.8087C66.7976 18.7884 66.7959 18.7645 66.7821 18.7445L57.8076 5.97984C57.6812 5.8004 57.5092 5.68455 57.3245 5.59884C57.2056 5.32045 56.9943 5.08753 56.7103 4.96243L45.6418 0.0996863C45.4916 0.0344039 45.3303 0 45.1668 0H21.8332C21.6696 0 21.5083 0.0344039 21.3582 0.0996863L10.2897 4.96243C10.0057 5.08753 9.79451 5.32033 9.67557 5.5986C9.49081 5.68418 9.31874 5.80028 9.19241 5.97984L0.217961 18.7445C0.204051 18.7645 0.202405 18.7884 0.189692 18.8087C0.16564 18.8476 0.134529 18.8807 0.114546 18.9226C0.0842717 18.9862 0.0712288 19.0537 0.052562 19.1201C0.0435875 19.152 0.0295874 19.1815 0.0232454 19.2138C-0.0037976 19.3502 -0.00699849 19.4878 0.0123564 19.6242C0.0167838 19.6555 0.0280318 19.6838 0.034972 19.7147C0.0585449 19.8216 0.0959983 19.9236 0.14793 20.0219C0.167196 20.0583 0.185743 20.0927 0.208717 20.1273C0.225829 20.1532 0.235521 20.1825 0.254786 20.2073L32.5628 61.5406C32.5723 61.5525 32.5875 61.557 32.5973 61.5686C32.6996 61.69 32.8198 61.7896 32.958 61.8613C32.9801 61.8727 33.0023 61.8794 33.0251 61.8895C33.1738 61.9554 33.3325 62 33.5 62C33.6675 62 33.8262 61.9554 33.9749 61.8895C33.9977 61.8794 34.0199 61.8727 34.0419 61.8613C34.1801 61.7896 34.3004 61.69 34.4027 61.5686C34.4125 61.557 34.4277 61.5525 34.4372 61.5406L66.7452 20.2073C66.7645 20.1825 66.7741 20.1532 66.7913 20.1273C66.8142 20.0927 66.8328 20.0583 66.852 20.0219C66.904 19.9236 66.9414 19.8216 66.965 19.7147ZM22.0809 2.43137H44.9191L53.4973 6.19951L44.8642 10.9412H22.1358L13.5026 6.19951L22.0809 2.43137ZM18.8312 32.8235H48.1688L33.5 58.3719L18.8312 32.8235ZM18.8786 30.3922L23.0666 13.3725H43.9687L48.8323 30.3922H18.8786ZM3.35133 18.4713L11.0013 7.5905L20.7106 12.9225L16.6419 29.4567L3.41631 18.5083C3.39668 18.4922 3.37179 18.4861 3.35133 18.4713ZM15.5626 31.7001C15.5762 31.8803 15.6213 32.0589 15.7141 32.2204L24.0514 46.7412L6.30201 24.0335L15.5626 31.7001ZM42.9479 46.7422L51.2859 32.2204C51.3787 32.0589 51.4238 31.8803 51.4374 31.7001L60.6986 24.0335L42.9479 46.7422ZM50.9238 28.9884L46.3269 12.902L55.9987 7.5905L63.6484 18.471C63.6278 18.486 63.6027 18.492 63.5831 18.5083L50.9238 28.9884Z" fill="#54FFBD"/>
</svg>
