<svg width="17" height="21" viewBox="0 0 17 21" fill="none" xmlns="http://www.w3.org/2000/svg">
<path d="M16.9447 6.5481C16.9086 6.46096 16.8569 6.3831 16.7917 6.31739L11.1265 0.604531C11.0613 0.538817 10.9841 0.486674 10.8977 0.450246C10.812 0.413817 10.7199 0.394531 10.625 0.394531H0.708333C0.317333 0.394531 0 0.714531 0 1.10882C0 1.5031 0.317333 1.8231 0.708333 1.8231H9.91667V6.8231C9.91667 7.21739 10.2333 7.53739 10.625 7.53739H15.5833V18.966H1.41667V3.96596C1.41667 3.57167 1.09933 3.25167 0.708333 3.25167C0.317333 3.25167 0 3.57167 0 3.96596V19.6802C0 20.0752 0.317333 20.3945 0.708333 20.3945H16.2917C16.6834 20.3945 17 20.0752 17 19.6802V6.8231C17 6.7281 16.9809 6.63453 16.9447 6.5481ZM11.3333 2.8331L14.5817 6.10882H11.3333V2.8331Z" fill="#100380"/>
</svg>
